<?xml version="1.0" encoding="UTF-8"?>
<svg id="Logos" xmlns="http://www.w3.org/2000/svg" viewBox="0 0 455.86 70.44">
  <defs>
    <style>
      .cls-1 {
        fill: #fff;
      }
    </style>
  </defs>
  <path class="cls-1" d="M317.64,54.07l12.14,14.1h-2.29l-11.11-12.73-5.8,5.94v6.79h-1.88v-25.84h1.88v16.61l16.13-16.61h2.29l-11.37,11.74ZM135.43,42.33l11.89,25.84h-2.03l-3.32-7.27h-14.99l-3.29,7.27h-2.03l11.89-25.84h1.88ZM141.26,59.31l-6.79-14.91-6.75,14.91h13.55ZM113.08,42.33l-11.55,19.97-11.55-19.97h-1.59v25.84h1.84v-22.04l10.82,18.6h.92l10.82-18.68.04,22.11h1.84l-.04-25.84h-1.55ZM147.39,42.33v1.7h9.3v24.14h1.88v-24.14h17.68v24.14h1.88v-24.14h9.3v-1.7h-40.05ZM359.37,68.17h-2.03l-3.32-7.27h-14.99l-3.29,7.27h-2.03l11.89-25.84h1.88l11.89,25.84ZM353.32,59.31l-6.79-14.91-6.75,14.91h13.55ZM212.91,57.13c0,6.46-3.07,9.49-8.46,9.49s-8.49-3.03-8.49-9.49v-14.8h-1.88v14.87c0,7.38,3.91,11.15,10.34,11.15s10.37-3.77,10.37-11.15v-14.87h-1.88v14.8ZM297.37,54.22h-17.28v-11.89h-1.88v25.84h1.88v-12.29h17.28v12.29h1.88v-25.84h-1.88v11.89ZM261,43.88c3.03,0,5.72.89,7.94,3.06l1.18-1.22c-2.25-2.4-5.54-3.58-9.19-3.58-7.68,0-13.4,5.57-13.4,13.1s5.72,13.1,13.4,13.1c3.65,0,6.94-1.22,9.19-3.62l-1.18-1.22c-2.21,2.18-4.91,3.1-7.94,3.1-6.61,0-11.59-4.87-11.59-11.37s4.98-11.37,11.59-11.37ZM225.2,48.97c0-2.84,2.25-5.17,7.27-5.17,2.33,0,4.95.7,7.09,2.18l.7-1.51c-2-1.44-4.95-2.32-7.79-2.32-6.35,0-9.15,3.21-9.15,6.87,0,9.52,16.13,4.87,16.13,12.62,0,2.8-2.29,5.06-7.46,5.06-3.47,0-6.75-1.4-8.53-3.25l-.85,1.4c1.88,2.07,5.57,3.51,9.41,3.51,6.39,0,9.3-3.18,9.3-6.83,0-9.38-16.13-4.8-16.13-12.55ZM455.86,6.98v24.43h-4.64l-12.18-14.83v14.83h-5.58V6.98h4.68l12.14,14.83V6.98h5.58ZM426.77,26.87v4.54h-18.92V6.98h18.46v4.53h-12.84v5.3h11.34v4.4h-11.34v5.65h13.3ZM389.03,11.59h-7.82v-4.6h21.29v4.6h-7.82v19.82h-5.65V11.59ZM371.19,15.84c0-2.69-1.74-4.26-5.2-4.26h-4.61v8.52h4.61c3.46,0,5.2-1.6,5.2-4.26M371.3,31.41l-4.71-6.8h-5.2v6.8h-5.65V6.98h10.57c6.53,0,10.61,3.38,10.61,8.86,0,3.67-1.85,6.35-5.03,7.71l5.48,7.85h-6.07ZM340.9,21.88l-3.87-9.35-3.87,9.35h7.75ZM342.68,26.17h-11.34l-2.17,5.23h-5.79l10.89-24.43h5.58l10.92,24.43h-5.93l-2.16-5.23ZM341.87,4.82c-1.36,0-2.41-.98-2.41-2.41s1.05-2.41,2.41-2.41,2.44.98,2.44,2.41-1.08,2.41-2.44,2.41M332.25,4.82c-1.36,0-2.44-.98-2.44-2.41s1.08-2.41,2.44-2.41,2.41.98,2.41,2.41-1.05,2.41-2.41,2.41M314,18.81h5.17v9.91c-2.69,2.03-6.39,3.11-9.88,3.11-7.68,0-13.33-5.27-13.33-12.63s5.65-12.63,13.43-12.63c4.29,0,7.85,1.46,10.23,4.22l-3.63,3.35c-1.78-1.88-3.84-2.76-6.32-2.76-4.75,0-7.99,3.18-7.99,7.82s3.24,7.82,7.92,7.82c1.53,0,2.97-.28,4.4-1.05v-7.15ZM281.11,31.83c-3.87,0-7.78-1.15-9.94-2.83l1.92-4.26c2.06,1.5,5.13,2.55,8.06,2.55,3.35,0,4.71-1.12,4.71-2.62,0-4.57-14.2-1.43-14.2-10.5,0-4.15,3.35-7.61,10.3-7.61,3.07,0,6.21.73,8.48,2.16l-1.74,4.29c-2.27-1.29-4.61-1.92-6.77-1.92-3.35,0-4.64,1.26-4.64,2.79,0,4.5,14.2,1.4,14.2,10.37,0,4.08-3.38,7.57-10.37,7.57M265.57,26.88v4.53h-18.91V6.98h18.46v4.54h-12.84v5.3h11.34v4.4h-11.34v5.65h13.3ZM232.58,6.98h5.65v24.43h-5.65V6.98ZM212.51,26.77c4.85,0,8.03-2.9,8.03-7.57s-3.18-7.57-8.03-7.57h-5.17v15.15h5.17ZM201.69,6.98h11.1c7.99,0,13.47,4.82,13.47,12.21s-5.48,12.21-13.47,12.21h-11.1V6.98ZM186.86,21.88l-3.87-9.35-3.87,9.35h7.75ZM188.64,26.17h-11.34l-2.16,5.23h-5.79l10.89-24.43h5.58l10.92,24.43h-5.93l-2.17-5.23ZM158.89,15.85c0-2.69-1.74-4.26-5.2-4.26h-4.6v8.51h4.6c3.46,0,5.2-1.6,5.2-4.26M158.99,31.41l-4.71-6.8h-5.2v6.8h-5.65V6.98h10.57c6.53,0,10.61,3.39,10.61,8.87,0,3.66-1.85,6.35-5.03,7.71l5.48,7.85h-6.07ZM128.42,21.88l-3.87-9.35-3.87,9.35h7.75ZM130.2,26.17h-11.34l-2.16,5.23h-5.79l10.89-24.43h5.58l10.92,24.43h-5.93l-2.17-5.23ZM98.73,20.07c3.46,0,5.2-1.57,5.2-4.22s-1.74-4.26-5.2-4.26h-4.61v8.48h4.61M99.04,6.98c6.53,0,10.61,3.39,10.61,8.87s-4.08,8.83-10.61,8.83h-4.92v6.73h-5.65V6.98h10.57M37.46.01s-5.22,5.7-14.68,12.77c-9.45,7.07-14.91,9.42-19.47,15.86-5.2,7.35-2.73,14.07-2.73,14.07l28.61-26.44,3.99,1.19-2.42,17,4.9-15.21,1.44.45L37.46.01M38.3.13s1.4,3.48,7.95,10.93c3.62,4.12,14.53,9.87,19.06,15.23,4.53,5.37,4.37,7.3,4.37,7.3l-22.51,16.64-1.29-28.62-3.74.31-2.35,9.23-.21-10.63-.74-.3L38.3.13M.98,44.03l26.98-22.3-4.11,29.82,3.61,2.59,6.78-20.93.52,19.93,1.7-.18-.23,17.47s-12.48-4.91-19.8-9.37C2.8,52.74.98,44.03.98,44.03M69.92,34.8s1.43,5.21-1.74,10.69c-2.29,3.96-3.67,7.01-14.1,15.37-8.4,6.74-14.69,9.37-14.69,9.37l-.12-21.04,3-13.48.65,17.7,4.45-.09,22.55-18.52Z"/>
</svg>